<?xml version="1.0" standalone="no"?><!DOCTYPE svg PUBLIC "-//W3C//DTD SVG 1.1//EN" "http://www.w3.org/Graphics/SVG/1.1/DTD/svg11.dtd"><svg class="icon" width="48px" height="48.00px" viewBox="0 0 1024 1024" version="1.1" xmlns="http://www.w3.org/2000/svg"><path fill="#2c2c2c" d="M832 192v640H192V192h640m0-64H192a64 64 0 0 0-64 64v640a64 64 0 0 0 64 64h640a64 64 0 0 0 64-64V192a64 64 0 0 0-64-64zM625.14 489.3c-0.14-0.13-0.32-0.16-0.46-0.3L444.12 308.43a32 32 0 0 0-45.26 0 32 32 0 0 0 0 45.25L557.18 512 398.86 670.32a32 32 0 0 0 0 45.25 32 32 0 0 0 45.26 0L624.68 535c0.14-0.13 0.32-0.18 0.46-0.3a32.22 32.22 0 0 0 0-45.41z" /></svg>