<?xml version="1.0" standalone="no"?><!DOCTYPE svg PUBLIC "-//W3C//DTD SVG 1.1//EN" "http://www.w3.org/Graphics/SVG/1.1/DTD/svg11.dtd"><svg class="icon" width="48px" height="48.00px" viewBox="0 0 1024 1024" version="1.1" xmlns="http://www.w3.org/2000/svg"><path fill="#2c2c2c" d="M507.3 377.4c-71.3 0-129.3 58-129.3 129.3S436 636 507.3 636v-56.6c-40.1 0-72.7-32.6-72.7-72.7s32.6-72.7 72.7-72.7 72.7 32.6 72.7 72.7h56.6c0-71.3-58-129.3-129.3-129.3z"  /><path fill="#2c2c2c" d="M792.8 233.3l-91.7 34c-23-18.1-48.2-32.7-75.3-43.5l-16.4-96.4H416.6l-16.3 96.4c-27.1 10.8-52.4 25.4-75.3 43.5l-91.7-34-96.4 167 75.2 62.3c-2.1 14.4-3.1 29-3.1 43.5 0 14.6 1.1 29.1 3.1 43.5L136.8 612l96.4 167 91.7-34.1c23 18.1 48.2 32.7 75.3 43.5l16.3 96.4h192.8l16.4-96.4c27.1-10.8 52.4-25.4 75.3-43.5l91.7 34.1 96.4-167-75.3-62.3c2.1-14.4 3.1-29 3.1-43.5s-1.1-29.1-3.1-43.5l75.3-62.3-96.3-167.1z m-40.7 207l3.3 16.6c3.3 16.2 4.9 32.8 4.9 49.3s-1.7 33.1-4.9 49.3l-3.3 16.6 64.1 53.1-48.6 84.1-78.1-29-12.7 11.2c-25 22.1-53.7 38.7-85.2 49.2l-16.1 5.4-13.9 82.1h-97.1l-13.9-82.1-16.1-5.4c-31.5-10.5-60.2-27.1-85.2-49.2l-12.7-11.3-78.2 29-48.6-84.1 64.1-53.1-3.4-16.6c-3.3-16.1-4.9-32.7-4.9-49.3s1.7-33.1 4.9-49.3l3.4-16.6-64.1-53.1 48.6-84.1 78.1 29 12.7-11.2c25-22.1 53.7-38.7 85.2-49.2l16.1-5.4 13.9-82.1h97.1l13.9 82.1 16.1 5.4c31.5 10.6 60.2 27.1 85.2 49.2l12.7 11.2 78.1-29 48.6 84.1-64 53.2z"  /></svg>